<svg xmlns="http://www.w3.org/2000/svg" xmlns:xlink="http://www.w3.org/1999/xlink" width="1080" zoomAndPan="magnify" viewBox="0 0 810 809.999993" height="1080" preserveAspectRatio="xMidYMid meet" version="1.0"><defs><g/><clipPath id="b176056a7e"><rect x="0" width="810" y="0" height="810"/></clipPath></defs><rect x="-81" width="972" fill="#ffffff" y="-80.999999" height="971.999992" fill-opacity="1"/><rect x="-81" width="972" fill="#ffffff" y="-80.999999" height="971.999992" fill-opacity="1"/><g transform="matrix(1, 0, 0, 1, 0, 0.000000000000039746)"><g clip-path="url(#b176056a7e)"><g fill="#0097b2" fill-opacity="1"><g transform="translate(309.754967, 829.60696)"><g><path d="M 70.640625 -44.125 C 66.679688 -53.945312 61.445312 -64.066406 54.9375 -74.484375 L -251.28125 -564.703125 L -173.21875 -613.453125 L 236.984375 -417.171875 L 50.234375 -716.140625 C 41.296875 -730.453125 34.46875 -738.488281 29.75 -740.25 L 135.125 -806.078125 C 140.320312 -794.859375 146.820312 -783.003906 154.625 -770.515625 L 457.4375 -285.75 L 376.265625 -235.03125 L -22.78125 -420.40625 L 172.515625 -107.765625 Z M 70.640625 -44.125 "/></g></g></g></g></g></svg>